<?xml version="1.0" encoding="UTF-8"?> <svg xmlns="http://www.w3.org/2000/svg" id="logo-light" width="344.469" height="110.938" viewBox="0 0 344.469 110.938"><defs><style> .cls-1, .cls-2 { fill-rule: evenodd; } .cls-2 { fill: #c3002f; } </style></defs><path class="cls-1" d="M154.206,76.825h-2.392V58.309c0-8.473-4.654-12.769-13.835-12.769a19.952,19.952,0,0,0-10.628,2.6,9.881,9.881,0,0,0-4.662,8.38,1.7,1.7,0,0,0,.347,1.4,1.788,1.788,0,0,0,1.421.549h4.678a1.828,1.828,0,0,0,1.83-1.691c0.6-2.757,2.322-4.1,5.26-4.1a10.126,10.126,0,0,1,3.712.52c1.646,0.743,2.481,2.706,2.481,5.834v1.834c-1.234.034-2.265,0.051-3.075,0.051a30.834,30.834,0,0,0-11.975,2.556C123.143,65.364,121,68.874,121,73.914c0,3.839,1.127,6.686,3.352,8.464A12.8,12.8,0,0,0,132.57,85c4.544,0,8.212-1.458,10.911-4.336l0.259,1.705a1.809,1.809,0,0,0,1.841,1.752h8.625a1.716,1.716,0,0,0,1.848-1.851v-3.59A1.7,1.7,0,0,0,154.206,76.825Zm-13.495-.957a8.217,8.217,0,0,1-5.436,1.616c-3.474,0-5.024-1.327-5.024-4.3,0-1.914.635-3.181,1.94-3.877,0.8-.425,1.739-0.859,2.784-1.287,0.633-.26,2.467-0.573,7.589-0.6V72.3A4.567,4.567,0,0,1,140.711,75.868ZM183.3,45.54a13.688,13.688,0,0,0-10.358,4.731V29.809a1.715,1.715,0,0,0-1.846-1.852H160.053a1.716,1.716,0,0,0-1.848,1.852v3.883a1.716,1.716,0,0,0,1.848,1.852h3.195V76.825h-3.123a1.7,1.7,0,0,0-1.846,1.851v3.59a1.716,1.716,0,0,0,1.846,1.851h8.918a1.739,1.739,0,0,0,1.84-1.743l0.187-1.281a12.19,12.19,0,0,0,3.459,2.4,16.7,16.7,0,0,0,7.305,1.5,15.181,15.181,0,0,0,12.006-5.277c3.008-3.474,4.533-8.52,4.533-15s-1.338-11.337-3.979-14.446C191.721,47.133,187.987,45.54,183.3,45.54Zm5.318,19.949c0,7.923-2.648,11.775-8.095,11.775a10.4,10.4,0,0,1-4.6-1.168,8.584,8.584,0,0,1-2.979-2.131V61.24a6.706,6.706,0,0,1,2.333-5.4,7.808,7.808,0,0,1,5.176-2.052,8.923,8.923,0,0,1,4.452.926C187.363,56.127,188.613,59.752,188.613,65.49Zm31.23,11.336H215.99V48.2a1.716,1.716,0,0,0-1.847-1.852H203.105a1.716,1.716,0,0,0-1.847,1.852v3.81a1.7,1.7,0,0,0,1.847,1.851h3.2V76.825h-3.854a1.7,1.7,0,0,0-1.847,1.851v3.59a1.716,1.716,0,0,0,1.847,1.851h17.4a1.716,1.716,0,0,0,1.848-1.851v-3.59A1.7,1.7,0,0,0,219.843,76.825ZM210.159,42.8a5.926,5.926,0,0,0,4.368-1.686,5.817,5.817,0,0,0,1.682-4.269,6.024,6.024,0,0,0-1.632-4.292,6.307,6.307,0,0,0-8.691,0,6.467,6.467,0,0,0-.036,8.546A5.675,5.675,0,0,0,210.159,42.8ZM248.8,28.9a20.458,20.458,0,0,0-8.347-1.9,16.136,16.136,0,0,0-6.515,1.09c-3.935,1.736-5.931,5.739-5.931,11.9v6.354h-3.781a1.716,1.716,0,0,0-1.847,1.852v3.736a1.716,1.716,0,0,0,1.847,1.852h3.781V76.825h-3.781a1.7,1.7,0,0,0-1.847,1.851v3.59a1.716,1.716,0,0,0,1.847,1.851H244.7a1.716,1.716,0,0,0,1.847-1.851v-3.59a1.7,1.7,0,0,0-1.847-1.851h-7V53.787h8.094a1.7,1.7,0,0,0,1.847-1.852V48.2a1.7,1.7,0,0,0-1.847-1.852H237.7v-4.6c0-2.857.247-4.832,0.734-5.872,0.405-.867,1.3-1.288,2.755-1.288a12.91,12.91,0,0,1,5.266,1.26,1.689,1.689,0,0,0,1.314.056,1.8,1.8,0,0,0,.937-1.047l1.092-3.646a2.98,2.98,0,0,0,.11-0.893A1.552,1.552,0,0,0,248.8,28.9Zm20.89,47.924h-3.854V29.809a1.716,1.716,0,0,0-1.847-1.852H252.953a1.716,1.716,0,0,0-1.847,1.852v3.81a1.716,1.716,0,0,0,1.847,1.851h3.2V76.825H252.3a1.7,1.7,0,0,0-1.847,1.851v3.59a1.716,1.716,0,0,0,1.847,1.851h17.4a1.716,1.716,0,0,0,1.848-1.851v-3.59A1.7,1.7,0,0,0,269.692,76.825Zm27.866-29.7h0A15.624,15.624,0,0,0,290.3,45.54c-5.626,0-10,1.946-13.015,5.783-2.969,3.781-4.475,8.608-4.475,14.349s1.42,10.436,4.221,13.951c2.841,3.567,7.33,5.375,13.342,5.375a25.763,25.763,0,0,0,12.433-2.737,1.813,1.813,0,0,0,.98-2.406L302.4,76.492a1.852,1.852,0,0,0-1.027-1.124,1.776,1.776,0,0,0-1.44.13,19.41,19.41,0,0,1-7.952,1.84c-3.393,0-5.787-.875-7.117-2.6A13.549,13.549,0,0,1,282.5,67.78h20.673a2.2,2.2,0,0,0,1.626-.513c0.29-.29.513-0.762,0.513-3.9a23.163,23.163,0,0,0-3.03-11.89A11.624,11.624,0,0,0,297.558,47.128Zm-13.313,8.479c1.054-1.619,2.845-2.406,5.475-2.406a6.041,6.041,0,0,1,4.488,1.583c1.219,1.243,1.866,3.284,1.921,6.069H282.482A11.441,11.441,0,0,1,284.245,55.607Zm58.906,21.218h-4.624l-7.773-12.687,7.657-10.278h4.009a1.7,1.7,0,0,0,1.848-1.851V48.2a1.716,1.716,0,0,0-1.848-1.852H328.532a1.7,1.7,0,0,0-1.847,1.852v3.81a1.7,1.7,0,0,0,1.847,1.851h1.21l-3.1,4.173L320.787,47.7a2.442,2.442,0,0,0-2.268-1.348h-9.137a1.7,1.7,0,0,0-1.847,1.852v3.81a1.7,1.7,0,0,0,1.847,1.851h4.255l6.826,11.292-8.752,11.674h-3.425a1.7,1.7,0,0,0-1.848,1.851v3.59a1.716,1.716,0,0,0,1.848,1.851h15.129a1.716,1.716,0,0,0,1.849-1.851v-3.59a1.7,1.7,0,0,0-1.849-1.851h-2.541l3.791-5.207,6.612,11.224a2.693,2.693,0,0,0,2.3,1.276h9.575A1.716,1.716,0,0,0,345,82.267v-3.59A1.7,1.7,0,0,0,343.151,76.825Z" transform="translate(-0.531 -0.531)"></path><path class="cls-2" d="M37.607,37.461a34.242,34.242,0,0,1,11.349-7.3,40.144,40.144,0,0,1,14.975-2.609h32.91l4.672-3.255a55.467,55.467,0,1,0-88.42,66.855l0,0h0l4.4-3.608,6.721-25.085a70.147,70.147,0,0,1,5.29-13.9A42.289,42.289,0,0,1,37.607,37.461ZM109.63,41.8l-0.01.039H62.779a18.863,18.863,0,0,0-8.343,1.744,23.21,23.21,0,0,0-6.087,4.175,21.964,21.964,0,0,0-3.922,4.969,19.434,19.434,0,0,0-1.872,4.229H94.787l-1.234,4.6A16.425,16.425,0,0,1,77.51,73.873H38.023l-8.3,30.983A55.5,55.5,0,0,0,109.63,41.8Z" transform="translate(-0.531 -0.531)"></path></svg> 