<svg xmlns="http://www.w3.org/2000/svg" id="Outline" height="512" viewBox="0 0 64 64" width="512"><path d="m56 11h-3v-5c0-.55-.45-1-1-1h-1v-1c0-.55-.45-1-1-1h-2c-.55 0-1 .45-1 1v1h-1c-.55 0-1 .45-1 1v1h-27v-1c0-.55-.45-1-1-1s-1 .45-1 1v5h-6c-2.76 0-5 2.24-5 5v10c0 1.65 1.35 3 3 3h1v2c0 1.1.9 2 2 2h3v3c0 .55.45 1 1 1h1v3c0 .55.45 1 1 1s1-.45 1-1v-3h1c.55 0 1-.45 1-1v-3h3c1.1 0 2-.9 2-2v-2h20v20h-37c-1.65 0-3 1.35-3 3v3h-1c-.55 0-1 .45-1 1v4c0 .55.45 1 1 1h56c.55 0 1-.45 1-1v-44c0-2.76-2.24-5-5-5zm-9-4h4v4h-4zm-29 2h27v2h-27zm-11 17v-10c0-1.65 1.35-3 3-3h46c1.65 0 3 1.35 3 3v11h-51c-.55 0-1-.45-1-1zm11 9h-2v-2h2zm5-4h-12v-2h12zm24-2h12v20h-12zm-40 23c0-.55.45-1 1-1h51v4h-52zm52 7h-54v-2h54z"></path><path d="m22 23c1.65 0 3-1.35 3-3s-1.35-3-3-3h-10c-1.65 0-3 1.35-3 3s1.35 3 3 3zm-11-3c0-.55.45-1 1-1h10c.55 0 1 .45 1 1s-.45 1-1 1h-10c-.55 0-1-.45-1-1z"></path><path d="m53 32c-1.65 0-3 1.35-3 3s1.35 3 3 3 3-1.35 3-3-1.35-3-3-3zm0 4c-.55 0-1-.45-1-1s.45-1 1-1 1 .45 1 1-.45 1-1 1z"></path><path d="m53 40c-1.65 0-3 1.35-3 3s1.35 3 3 3 3-1.35 3-3-1.35-3-3-3zm0 4c-.55 0-1-.45-1-1s.45-1 1-1 1 .45 1 1-.45 1-1 1z"></path></svg>