<svg xmlns="http://www.w3.org/2000/svg" height="512pt" viewBox="0 0 512 512" width="512pt"><path d="m456.832031 48.199219h-235.847656c-6.753906-27.628907-31.703125-48.199219-61.386719-48.199219h-96.398437c-34.847657 0-63.199219 28.351562-63.199219 63.199219v385.601562c0 34.847657 28.351562 63.199219 63.199219 63.199219h393.632812c30.417969 0 55.164063-24.746094 55.164063-55.167969v-353.464843c.003906-30.421876-24.746094-55.167969-55.164063-55.167969zm-393.632812-18.199219h96.398437c18.308594 0 33.199219 14.894531 33.199219 33.199219v331.855469c-9.652344-5.988282-21.027344-9.453126-33.199219-9.453126h-96.398437c-12.171875 0-23.542969 3.464844-33.199219 9.453126v-331.855469c0-18.304688 14.894531-33.199219 33.199219-33.199219zm-33.199219 418.800781c0-18.308593 14.894531-33.199219 33.199219-33.199219h96.398437c18.308594 0 33.199219 14.890626 33.199219 33.199219 0 18.304688-14.890625 33.199219-33.199219 33.199219h-96.398437c-18.304688 0-33.199219-14.894531-33.199219-33.199219zm452 8.03125c0 13.878907-11.292969 25.167969-25.167969 25.167969h-243.488281c5.988281-9.65625 9.457031-21.027344 9.457031-33.199219v-370.601562h234.03125c13.875 0 25.167969 11.289062 25.167969 25.167969zm0 0"></path></svg>