<svg xmlns="http://www.w3.org/2000/svg" width="512" height="512" viewBox="0 0 128 128"><path d="M111.75,64a1.75,1.75,0,0,0-.987-1.575L89.181,51.981l21.582-10.444a1.75,1.75,0,0,0,0-3.15l-46-22.26a1.753,1.753,0,0,0-1.526,0l-46,22.26a1.75,1.75,0,0,0,0,3.15L38.819,51.981,17.237,62.425a1.75,1.75,0,0,0,0,3.15l21.274,10.3-21.274,10.3a1.75,1.75,0,0,0,0,3.15l46,22.26a1.751,1.751,0,0,0,1.526,0l46-22.26a1.75,1.75,0,0,0,0-3.15L89.489,75.87l21.274-10.3A1.75,1.75,0,0,0,111.75,64ZM64,19.646l41.982,20.316L64,60.278,22.018,39.962ZM56.882,60.722l-3.52,1.7a1.75,1.75,0,0,0,0,3.15l9.875,4.779a1.751,1.751,0,0,0,1.526,0l9.875-4.779a1.75,1.75,0,0,0,0-3.15l-3.52-1.7,5.128-2.482L88.149,64,64,75.686,39.851,64l11.9-5.76ZM67.1,62.666,69.857,64,64,66.834,58.143,64,60.9,62.666,63.237,63.8a1.751,1.751,0,0,0,1.526,0ZM105.982,87.74,64,108.056,22.018,87.74l20.511-9.926L63.237,87.835a1.751,1.751,0,0,0,1.526,0L85.471,77.814ZM64,84.316,22.018,64,42.837,53.925l4.9,2.371L35.07,62.425a1.75,1.75,0,0,0,0,3.15L63.237,79.206a1.76,1.76,0,0,0,1.526,0L92.93,65.575a1.75,1.75,0,0,0,0-3.15L80.264,56.3l4.9-2.371L105.982,64Z"></path></svg>