<svg xmlns="http://www.w3.org/2000/svg" width="633" height="634" viewBox="0 0 633 634"><defs><style> .cls-1 { fill: #fef8f0; fill-rule: evenodd; } </style></defs><path id="shape-bg" class="cls-1" d="M1277,2537.04v0.01A110.945,110.945,0,0,1,1166.05,2648H754.95A110.947,110.947,0,0,1,644,2537.05v-0.01a110.953,110.953,0,0,1,69.78-103.02,110.937,110.937,0,0,1,0-206.04A110.953,110.953,0,0,1,644,2124.96v-0.01A110.947,110.947,0,0,1,754.95,2014h411.1A110.945,110.945,0,0,1,1277,2124.95v0.01a110.959,110.959,0,0,1-69.78,103.02,110.937,110.937,0,0,1,0,206.04A110.959,110.959,0,0,1,1277,2537.04Z" transform="translate(-644 -2014)"></path></svg>