<svg xmlns="http://www.w3.org/2000/svg" id="Layer_1" data-name="Layer 1" viewBox="0 0 64 64" width="512" height="512"><title>1</title><path d="M37.536,52.928H18.382a1,1,0,0,1-1-1V12.989a1,1,0,0,1,1-1H46.505a1,1,0,0,1,1,1V42.96A9.98,9.98,0,0,1,37.536,52.928Zm-18.154-2H37.536a7.978,7.978,0,0,0,7.969-7.968V13.989H19.382Z"></path><path d="M14.03,22.01h-8V8.677A3.671,3.671,0,0,1,9.7,5.01H14.03Zm-6-2h4v-13H9.7A1.669,1.669,0,0,0,8.03,8.677Z"></path><path d="M58.03,22.01h-8v-17h4.333A3.671,3.671,0,0,1,58.03,8.677Zm-6-2h4V8.677A1.669,1.669,0,0,0,54.363,7.01H52.03Z"></path><path d="M52.03,14.01h-40v-9h40Zm-38-2h36v-5h-36Z"></path><rect x="46.5" y="20.01" width="4.53" height="2"></rect><rect x="13.03" y="20.01" width="5.35" height="2"></rect><path d="M14.03,59.01h-7v-39h7Zm-5-2h3v-35h-3Z"></path><path d="M57.03,59.01h-7v-39h7Zm-5-2h3v-35h-3Z"></path></svg>